<?xml version="1.0" encoding="UTF-8"?>
<!DOCTYPE svg PUBLIC "-//W3C//DTD SVG 1.1//EN" "http://www.w3.org/Graphics/SVG/1.1/DTD/svg11.dtd">
<!-- Creator: CorelDRAW -->
<svg xmlns="http://www.w3.org/2000/svg" xml:space="preserve" width="2048px" height="2048px" style="shape-rendering:geometricPrecision; text-rendering:geometricPrecision; image-rendering:optimizeQuality; fill-rule:evenodd; clip-rule:evenodd"
viewBox="0 0 2048 2048"
 xmlns:xlink="http://www.w3.org/1999/xlink">
 <defs>
  <style type="text/css">
   <![CDATA[
    .fil2 {fill:none}
    .fil0 {fill:#607D8B}
    .fil1 {fill:#FFFFFE}
   ]]>
  </style>
 </defs>
 <g id="Layer_x0020_1">
  <metadata id="CorelCorpID_0Corel-Layer"/>
  <rect class="fil0" width="2048" height="2048" rx="256.001" ry="256.001"/>
  <path class="fil1" d="M1574.86 467.084c23.5807,23.5772 38.1815,56.1473 38.1815,92.1461 0,35.8807 -14.6197,68.491 -38.2276,92.1438 -23.6575,23.7047 -56.2477,38.4 -92.1261,38.4 -19.0347,0 -37.1953,-4.16221 -53.615,-11.6256 -5.73426,-2.60669 -11.2524,-5.62441 -16.5165,-9.013 -99.8824,119.772 -140.589,193.89 -119.752,235.805 21.6024,43.4516 111.677,64.6725 272.432,77.1579 6.20906,-22.1173 18.0874,-41.8642 33.9555,-57.5516 23.5465,-23.2795 55.8414,-37.6642 91.4044,-37.6642 35.8819,0 68.4981,14.6835 92.1792,38.3977 23.602,23.6362 38.2252,56.23 38.2252,92.1473 0,36.0272 -14.5961,68.5819 -38.1614,92.1804 -23.6941,23.7272 -56.3386,38.3634 -92.243,38.3634 -35.576,0 -67.8957,-14.3339 -91.4576,-37.6193 -15.8445,-15.6579 -27.704,-35.3729 -33.9048,-57.5056 -158.998,12.6756 -248.843,34.2992 -269.96,78.6827 -20.928,43.9855 22.2331,121.631 128.656,247.656 3.52796,-1.54252 7.14449,-2.93977 10.8425,-4.18229 13.1929,-4.43268 27.1099,-6.83859 41.3551,-6.83859 35.8878,0 68.4827,14.6811 92.145,38.3894 23.5961,23.6433 38.2075,56.2418 38.2075,92.1556 0,35.9055 -14.6173,68.5276 -38.2205,92.1922 -23.6563,23.7166 -56.2465,38.4142 -92.132,38.4142 -35.8843,0 -68.4934,-14.7 -92.165,-38.4213 -23.6114,-23.6599 -38.2394,-56.2784 -38.2394,-92.1851 0,-19.748 4.48465,-38.6055 12.4973,-55.5898 2.8441,-6.02835 6.14646,-11.8122 9.86339,-17.3043 -113.699,-95.543 -188.939,-139.546 -234.389,-124.019 -44.4,15.1677 -69.1725,93.6639 -83.6304,243.714 21.5079,6.55158 40.6595,18.5032 55.8626,34.265 22.6701,23.504 36.6378,55.4315 36.6378,90.5103 0,35.9174 -14.6599,68.4745 -38.3233,92.1048 -23.628,23.5937 -56.2158,38.1768 -92.0989,38.1768 -35.8772,0 -68.4414,-14.5795 -92.0469,-38.1709 -23.6516,-23.6362 -38.2973,-56.1957 -38.2973,-92.1107 0,-35.0965 13.9689,-67.0371 36.6437,-90.5446 15.2291,-15.789 34.4173,-27.7512 55.9666,-34.2839 -13.5059,-145.584 -36.4382,-226.364 -80.5241,-243.345 -44.1555,-17.0067 -118.841,24.1063 -235.833,122.131 6.30473,6.49252 11.9433,13.637 16.8036,21.3236 12.7925,20.2323 20.204,44.1107 20.204,69.5847 0,35.9079 -14.6197,68.5312 -38.2276,92.1981 -23.6587,23.7189 -56.2536,38.4177 -92.1426,38.4177 -35.8796,0 -68.3764,-14.6858 -91.943,-38.3847 -23.5583,-23.6918 -38.1201,-56.3327 -38.1201,-92.2312 0,-35.902 14.5571,-68.5193 38.1083,-92.1863 23.5736,-23.6882 56.0752,-38.3575 91.9548,-38.3575 8.62678,0 17.3965,0.954331 26.1839,2.76378l2.09528 0.447638c105.252,-123.602 153.933,-203.445 137.73,-250.335 -15.45,-44.7059 -96.6237,-68.7969 -251.418,-82.8414 -6.42875,21.7181 -18.3319,41.0303 -34.0914,56.3552 -23.5571,22.9075 -55.6276,36.9744 -90.8387,36.9744 -35.9091,0 -68.5335,-14.6327 -92.2099,-38.354 -23.5571,-23.6043 -38.1414,-56.165 -38.1414,-92.1898 0,-35.9174 14.6102,-68.5158 38.2051,-92.1568 23.6622,-23.7083 56.2595,-38.3882 92.1461,-38.3882 35.1969,0 67.2449,14.1165 90.7867,37.0181 15.7914,15.3614 27.7181,34.7138 34.1516,56.4308 151.598,-13.2721 235.265,-35.1272 253.363,-78.2694 18.2114,-43.4162 -25.0725,-119.153 -127.228,-240.482 -4.36772,2.28662 -8.88662,4.33819 -13.5402,6.13701 -14.7626,5.70591 -30.6047,8.83229 -46.9441,8.83229 -35.8925,0 -68.5111,-14.6421 -92.1827,-38.3658 -23.5606,-23.6091 -38.152,-56.1745 -38.152,-92.178 0,-35.902 14.6173,-68.5217 38.2158,-92.1827 23.654,-23.7166 56.2441,-38.4154 92.119,-38.4154 35.889,0 68.4815,14.6953 92.139,38.4107 23.6055,23.6599 38.2217,56.2796 38.2217,92.1875 0,17.4685 -3.52914,34.2851 -9.92127,49.78 -2.14488,5.19685 -4.60866,10.2201 -7.36772,15.0461 119.296,101.104 194.699,146.982 238.227,131.943 41.5465,-14.3551 63.3898,-91.5827 77.0186,-237.082 -25.5768,-5.14961 -48.4796,-17.8122 -66.2882,-35.6044 -23.654,-23.6339 -38.2985,-56.1863 -38.2985,-92.093 0,-35.9162 14.6126,-68.5193 38.2063,-92.1662 23.6599,-23.7118 56.2536,-38.3953 92.1379,-38.3953 35.8878,0 68.5075,14.687 92.1898,38.4024 23.6067,23.641 38.2323,56.2394 38.2323,92.1591 0,31.7634 -11.4366,60.8811 -30.4099,83.5099 -13.0536,15.5681 -29.6882,28.0453 -48.626,36.1807 13.4055,146.368 34.774,226.557 76.6016,242.855 42.7772,16.6665 117.34,-26.7414 236.857,-127.647 -1.67362,-3.69685 -3.18071,-7.48819 -4.51063,-11.361 -4.57796,-13.3193 -7.06536,-27.5563 -7.06536,-42.3036 0,-35.915 14.6587,-68.4898 38.3256,-92.139 23.6197,-23.6032 56.1981,-38.1957 92.0788,-38.1957 35.8819,0 68.4426,14.5902 92.0469,38.1886l0.125197 0zm-383.524 542.845c0,-12.2976 -1.67126,-22.9051 -5.00079,-31.9146 -3.36024,-8.97048 -8.12835,-15.8055 -14.3752,-20.4118 -6.19134,-4.59804 -13.3004,-6.89646 -21.3827,-6.89646 -5.73189,0 -11.0067,1.28504 -15.8752,3.82559 -4.84607,2.57244 -9.03072,6.27402 -12.5539,11.1614 -3.4937,4.87087 -6.26221,11.113 -8.30788,18.6803 -2.01496,7.56851 -3.03425,16.1091 -3.03425,25.5555 0,9.51615 1.01929,18.1429 3.03425,25.8213 2.04567,7.69134 4.90867,14.0894 8.60316,19.1634 3.68622,5.07402 7.94174,8.86182 12.7488,11.3563 4.78347,2.53229 10.0571,3.78662 15.789,3.78662 7.34292,0 14.0717,-2.19685 20.224,-6.52323 6.1689,-4.3252 11.0457,-11.0433 14.6705,-20.1307 3.65551,-9.04843 5.46024,-20.2087 5.46024,-33.4736zm-40.7587 -86.1816c14.6929,0 27.287,3.5067 37.8425,10.5685 10.5,7.06064 18.4736,17.0516 23.8713,30.0437 5.42126,12.9839 8.113,28.2437 8.113,45.8032 0,12.9532 -1.47756,24.6981 -4.43386,35.3044 -2.97047,10.5768 -7.39016,19.7811 -13.3158,27.5516 -5.93504,7.76221 -13.2236,13.7008 -21.8114,17.824 -8.64213,4.09961 -18.5351,6.17245 -29.667,6.17245 -11.0764,0 -20.9858,-2.11181 -29.7603,-6.36733 -8.72717,-4.20827 -16.0465,-10.1787 -21.9189,-17.863 -5.85709,-7.69253 -10.2591,-16.9748 -13.278,-27.7843 -2.98701,-10.8024 -4.47284,-22.5083 -4.47284,-35.0717 0,-12.8752 1.54843,-24.6981 4.67599,-35.4296 3.14173,-10.7622 7.65237,-19.8969 13.5886,-27.4252 5.92678,-7.5756 13.1055,-13.3429 21.6083,-17.3256 8.50985,-4.01339 18.1547,-6.00119 28.9583,-6.00119zm-100.861 29.0233l-64.5851 0 0 41.1591 59.4815 0c4.38662,0 7.64646,1.17638 9.79253,3.46772 2.13189,2.35394 3.22087,5.39292 3.22087,9.21969 0,3.81851 -1.05,6.90473 -3.15827,9.32009 -2.13898,2.37756 -5.43662,3.58583 -9.85513,3.58583l-59.4815 0 0 47.6811 66.8008 0c4.50355,0 7.91103,1.25433 10.1823,3.70158 2.30315,2.50984 3.42166,5.77559 3.42166,9.8752 0,3.98268 -1.1185,7.17756 -3.42166,9.67914 -2.27126,2.45551 -5.67874,3.70276 -10.1823,3.70276l-77.9079 0c-6.22205,0 -10.7339,-1.64528 -13.4728,-4.91811 -2.72953,-3.2811 -4.08307,-8.58072 -4.08307,-15.8835l0 -125.975c0,-4.87914 0.630709,-8.86182 1.8437,-11.948 1.22126,-3.07087 3.12756,-5.33859 5.73308,-6.73347 2.60433,-1.41142 5.93504,-2.11299 9.97914,-2.11299l75.6922 0c4.58032,0 7.97953,1.2 10.1894,3.58583 2.20866,2.43189 3.32008,5.54056 3.32008,9.44528 0,3.98268 -1.11142,7.13859 -3.32008,9.56339 -2.20984,2.36929 -5.60906,3.58465 -10.1894,3.58465zm-117.602 91.069c0,10.1398 -2.20866,19.2579 -6.61182,27.3473 -4.3937,8.06694 -10.8425,14.3953 -19.3441,18.9626 -8.50985,4.55906 -18.5599,6.86575 -30.2197,6.86575 -13.9772,0 -25.474,-3.1252 -34.5662,-9.3756 -6.4252,-4.52008 -11.6681,-10.4823 -15.6815,-18.0189 -4.02166,-7.49764 -6.03662,-14.7851 -6.03662,-21.8776 0,-4.1067 1.21417,-7.65237 3.62481,-10.5827 2.41181,-2.92323 5.46024,-4.41142 9.23387,-4.41142 3.02481,0 5.56063,1.16929 7.6689,3.43701 2.07638,2.29843 3.85748,5.69764 5.33622,10.1858 1.81181,5.33859 3.75591,9.78898 5.86418,13.3736 2.08465,3.55512 5.04922,6.52441 8.82875,8.85355 3.80433,2.30669 8.76615,3.48425 14.974,3.48425 8.49331,0 15.3768,-2.34567 20.6823,-7.02993 5.3126,-4.68426 7.98071,-10.5284 7.98071,-17.5512 0,-5.55 -1.41614,-10.0689 -4.28622,-13.5378 -2.86299,-3.47599 -6.58819,-6.13347 -11.1,-7.9252 -4.55079,-1.83307 -10.6099,-3.78898 -18.2327,-5.85355 -10.1421,-2.8063 -18.6756,-6.12638 -25.5366,-9.86694 -6.85158,-3.77953 -12.2894,-8.93977 -16.3028,-15.4476 -4.02874,-6.51497 -6.03544,-14.5973 -6.03544,-24.2764 0,-9.20434 2.11536,-17.3953 6.36969,-24.5729 4.23898,-7.14686 10.4079,-12.6413 18.4429,-16.5 8.04331,-3.86457 17.5016,-5.77441 28.3748,-5.77441 8.69646,0 16.2106,1.27795 22.5425,3.82677 6.3626,2.57244 11.5973,5.92323 15.7819,10.1705 4.18465,4.22481 7.24253,8.66575 9.19371,13.3039 1.91339,4.6441 2.8937,9.17363 2.8937,13.6228 0,4.01339 -1.22008,7.64646 -3.61654,10.8791 -2.41181,3.24331 -5.44489,4.88032 -9.03072,4.88032 -3.29882,0 -5.76378,-0.97441 -7.4752,-2.92323 -1.71851,-1.91693 -3.57048,-5.10473 -5.54528,-9.52442 -2.60669,-6.32008 -5.67874,-11.276 -9.29646,-14.8146 -3.58465,-3.55394 -9.38859,-5.31615 -17.3528,-5.31615 -7.41969,0 -13.3866,1.90984 -17.8984,5.76733 -4.55079,3.87402 -6.82087,8.48032 -6.82087,13.9039 0,3.35197 0.761812,6.23504 2.31024,8.65985 1.54725,2.45433 3.68622,4.56615 6.39331,6.32008 2.69882,1.71378 5.43662,3.1252 8.20631,4.09843 2.76851,0.975591 7.31221,2.40945 13.7055,4.32638 7.96536,2.22047 15.1831,4.63701 21.6473,7.3252 6.48662,2.65866 11.9634,5.90079 16.5059,9.7193 4.54961,3.7878 8.08111,8.62796 10.6099,14.4413 2.54292,5.85237 3.81851,12.985 3.81851,21.4252z"/>
  <rect class="fil2" x="258.999" y="255.999" width="1533" height="1536"/>
 </g>
</svg>
